<svg xmlns="http://www.w3.org/2000/svg" viewBox="0 0 32 32" width="32" height="32">
  <defs>
    <linearGradient id="grad1" x1="0%" y1="0%" x2="100%" y2="100%">
      <stop offset="0%" style="stop-color:#00d4ff;stop-opacity:1" />
      <stop offset="50%" style="stop-color:#0099cc;stop-opacity:1" />
      <stop offset="100%" style="stop-color:#006699;stop-opacity:1" />
    </linearGradient>
    <linearGradient id="grad2" x1="0%" y1="0%" x2="100%" y2="100%">
      <stop offset="0%" style="stop-color:#ffffff;stop-opacity:0.9" />
      <stop offset="100%" style="stop-color:#ffffff;stop-opacity:0.3" />
    </linearGradient>
  </defs>
  
  <!-- Background circle -->
  <circle cx="16" cy="16" r="15" fill="url(#grad1)" stroke="#ffffff" stroke-width="1"/>
  
  <!-- 3D Cube/Tower representation -->
  <g transform="translate(16,16)">
    <!-- Cube faces -->
    <polygon points="-6,-4 6,-4 6,4 -6,4" fill="url(#grad2)" opacity="0.8"/>
    <polygon points="6,-4 8,-2 8,6 6,4" fill="url(#grad2)" opacity="0.6"/>
    <polygon points="-6,4 -8,6 -8,-2 -6,-4" fill="url(#grad2)" opacity="0.4"/>
    
    <!-- WebGL/3D grid lines -->
    <line x1="-8" y1="-6" x2="8" y2="-6" stroke="#ffffff" stroke-width="0.5" opacity="0.7"/>
    <line x1="-8" y1="-2" x2="8" y2="-2" stroke="#ffffff" stroke-width="0.5" opacity="0.7"/>
    <line x1="-8" y1="2" x2="8" y2="2" stroke="#ffffff" stroke-width="0.5" opacity="0.7"/>
    <line x1="-8" y1="6" x2="8" y2="6" stroke="#ffffff" stroke-width="0.5" opacity="0.7"/>
    
    <!-- Vertical grid lines -->
    <line x1="-6" y1="-8" x2="-6" y2="8" stroke="#ffffff" stroke-width="0.5" opacity="0.7"/>
    <line x1="-2" y1="-8" x2="-2" y2="8" stroke="#ffffff" stroke-width="0.5" opacity="0.7"/>
    <line x1="2" y1="-8" x2="2" y2="8" stroke="#ffffff" stroke-width="0.5" opacity="0.7"/>
    <line x1="6" y1="-8" x2="6" y2="8" stroke="#ffffff" stroke-width="0.5" opacity="0.7"/>
    
    <!-- Central highlight -->
    <circle cx="0" cy="0" r="2" fill="#ffffff" opacity="0.9"/>
  </g>
</svg>
